#!OML:ASF F:\VICON\USERDATA\INSTALL\rory3\rory3.ASF
:FULLY-SPECIFIED
:DEGREES
1571
root 1.71609 9.82452 -4.87416 170.265 126.879 184.171
lowerback 27.1728 -0.627325 -4.14124
upperback 12.5566 -1.08785 0.0371095
thorax -0.908645 -0.42929 2.69154
lowerneck -22.6267 -8.7868 -15.4445
upperneck 9.30279 -9.07524 12.003
head 7.79567 -3.83698 5.26148
rclavicle -3.48867e-014 1.58034e-014
rhumerus -24.0527 19.9453 -86.731
rradius 98.88
rwrist 41.9735
rhand -40.2495 13.3918
rfingers 7.12502
rthumb -13.2083 -16.1697
lclavicle -3.48867e-014 1.58034e-014
lhumerus -21.5416 -14.471 88.0736
lradius 92.8605
lwrist -28.6332
lhand -38.9846 28.0979
lfingers 7.12502
lthumb -11.9889 57.7346
rfemur -81.6181 -18.4695 19.3296
rtibia 110.211
rfoot -9.88713 6.32094
rtoes -3.66445
lfemur -79.8644 14.4418 -20.2079
ltibia 107.977
lfoot -11.2057 -12.8789
ltoes -3.84719
1572
root 1.71741 9.82467 -4.8745 170.132 126.889 183.962
lowerback 27.1504 -0.700646 -4.06185
upperback 12.4841 -1.16744 0.104376
thorax -0.975522 -0.46832 2.74111
lowerneck -22.4657 -8.71553 -15.618
upperneck 9.31614 -8.96313 12.0638
head 7.77017 -3.79102 5.33096
rclavicle -1.98785e-013 9.74045e-014
rhumerus -24.1527 20.1468 -86.7224
rradius 98.9016
rwrist 41.9348
rhand -40.1947 13.4452
rfingers 7.12502
rthumb -13.1555 -16.1198
lclavicle -1.98785e-013 9.74045e-014
lhumerus -21.8619 -14.2939 88.1662
lradius 93.0108
lwrist -28.7025
lhand -38.9577 28.3965
lfingers 7.12502
lthumb -11.9628 58.0346
rfemur -81.6338 -18.4719 19.4821
rtibia 110.203
rfoot -9.90198 6.31875
rtoes -3.89707
lfemur -79.9407 14.4792 -20.0962
ltibia 107.998
lfoot -11.2254 -12.9398
ltoes -3.73152
1573
root 1.71868 9.82414 -4.87447 170.19 126.865 184.023
lowerback 27.1534 -0.728736 -4.11961
upperback 12.44 -1.2213 0.104459
thorax -1.02011 -0.497252 2.78904
lowerneck -22.3908 -8.66529 -15.692
upperneck 9.3266 -8.89491 12.1188
head 7.75872 -3.75939 5.37422
rclavicle 1.36664e-014 6.95746e-015
rhumerus -24.2571 20.2499 -86.7619
rradius 98.9217
rwrist 41.9439
rhand -40.1711 13.4692
rfingers 7.12502
rthumb -13.1328 -16.0973
lclavicle 1.36664e-014 6.95746e-015
lhumerus -22.0409 -14.1643 88.1502
lradius 93.0651
lwrist -28.7229
lhand -38.9631 28.0069
lfingers 7.12502
lthumb -11.9681 57.6447
rfemur -81.6526 -18.5092 19.439
rtibia 110.216
rfoot -9.86624 6.34367
rtoes -3.83331
lfemur -79.9336 14.4542 -20.1448
ltibia 107.995
lfoot -11.1875 -12.9543
ltoes -3.35793
1574
root 1.71853 9.82597 -4.87423 170.218 126.845 184.028
lowerback 27.105 -0.739487 -4.14567
upperback 12.4436 -1.23934 0.108986
thorax -0.991083 -0.508473 2.8127
lowerneck -22.3671 -8.65142 -15.6524
upperneck 9.28958 -8.8901 12.1261
head 7.74073 -3.75555 5.37141
rclavicle -4.56211e-014 2.51463e-014
rhumerus -24.2781 20.2444 -86.7983
rradius 98.9232
rwrist 42.0625
rhand -40.1988 13.399
rfingers 7.12502
rthumb -13.1594 -16.1658
lclavicle -4.56211e-014 2.51463e-014
lhumerus -21.981 -14.0433 88.1211
lradius 92.937
lwrist -28.7783
lhand -38.9653 27.1169
lfingers 7.12502
lthumb -11.9702 56.7546
rfemur -81.678 -18.5494 19.4669
rtibia 110.205
rfoot -9.89272 6.295
rtoes -4.23623
lfemur -79.9484 14.4346 -20.1671
ltibia 107.988
lfoot -11.1576 -12.9288
ltoes -3.30344
1575
root 1.72072 9.82522 -4.87364 170.183 126.836 183.958
lowerback 27.0625 -0.765122 -4.11258
upperback 12.4469 -1.26201 0.134122
thorax -0.966546 -0.520224 2.82639
lowerneck -22.3708 -8.65777 -15.6671
upperneck 9.28634 -8.89203 12.1181
head 7.74063 -3.7576 5.37055
rclavicle -1.74434e-014 -2.34566e-014
rhumerus -24.2894 20.2941 -86.7873
rradius 98.9209
rwrist 42.0863
rhand -40.3613 13.2334
rfingers 7.12502
rthumb -13.316 -16.3212
lclavicle -1.74434e-014 -2.34566e-014
lhumerus -21.9954 -13.9328 88.1385
lradius 92.9011
lwrist -28.8135
lhand -38.903 26.617
lfingers 7.12502
lthumb -11.9101 56.2582
rfemur -81.6997 -18.6056 19.5353
rtibia 110.204
rfoot -9.89821 6.32177
rtoes -3.96844
lfemur -79.9848 14.444 -20.1498
ltibia 108.002
lfoot -11.1301 -12.9212
ltoes -3.2352
